<svg width="800" height="500" viewBox="0 0 800 500" fill="none" xmlns="http://www.w3.org/2000/svg">
  <rect width="800" height="500" fill="#f2f2f2"/>

  <!-- Grid lines -->
  <g opacity="0.1">
    <path d="M0 50H800" stroke="#000" stroke-width="1"/>
    <path d="M0 100H800" stroke="#000" stroke-width="1"/>
    <path d="M0 150H800" stroke="#000" stroke-width="1"/>
    <path d="M0 200H800" stroke="#000" stroke-width="1"/>
    <path d="M0 250H800" stroke="#000" stroke-width="1"/>
    <path d="M0 300H800" stroke="#000" stroke-width="1"/>
    <path d="M0 350H800" stroke="#000" stroke-width="1"/>
    <path d="M0 400H800" stroke="#000" stroke-width="1"/>
    <path d="M0 450H800" stroke="#000" stroke-width="1"/>

    <path d="M50 0V500" stroke="#000" stroke-width="1"/>
    <path d="M100 0V500" stroke="#000" stroke-width="1"/>
    <path d="M150 0V500" stroke="#000" stroke-width="1"/>
    <path d="M200 0V500" stroke="#000" stroke-width="1"/>
    <path d="M250 0V500" stroke="#000" stroke-width="1"/>
    <path d="M300 0V500" stroke="#000" stroke-width="1"/>
    <path d="M350 0V500" stroke="#000" stroke-width="1"/>
    <path d="M400 0V500" stroke="#000" stroke-width="1"/>
    <path d="M450 0V500" stroke="#000" stroke-width="1"/>
    <path d="M500 0V500" stroke="#000" stroke-width="1"/>
    <path d="M550 0V500" stroke="#000" stroke-width="1"/>
    <path d="M600 0V500" stroke="#000" stroke-width="1"/>
    <path d="M650 0V500" stroke="#000" stroke-width="1"/>
    <path d="M700 0V500" stroke="#000" stroke-width="1"/>
    <path d="M750 0V500" stroke="#000" stroke-width="1"/>
  </g>

  <!-- Roads -->
  <path d="M0 125H800" stroke="#333" stroke-width="10"/>
  <path d="M0 375H800" stroke="#333" stroke-width="10"/>
  <path d="M200 0V500" stroke="#333" stroke-width="10"/>
  <path d="M600 0V500" stroke="#333" stroke-width="10"/>

  <!-- Heat zones (red areas) -->
  <circle cx="300" cy="200" r="80" fill="#ef4136" opacity="0.6"/>
  <circle cx="500" cy="300" r="100" fill="#ef4136" opacity="0.7"/>
  <circle cx="150" cy="430" r="60" fill="#ef4136" opacity="0.5"/>
  <circle cx="650" cy="150" r="70" fill="#ef4136" opacity="0.6"/>

  <!-- Buildings (gray blocks) -->
  <rect x="220" y="140" width="60" height="60" fill="#666"/>
  <rect x="320" y="140" width="40" height="40" fill="#666"/>
  <rect x="420" y="140" width="80" height="30" fill="#666"/>
  <rect x="520" y="140" width="60" height="60" fill="#666"/>

  <rect x="220" y="260" width="60" height="60" fill="#666"/>
  <rect x="320" y="260" width="40" height="40" fill="#666"/>
  <rect x="420" y="260" width="80" height="30" fill="#666"/>
  <rect x="520" y="260" width="60" height="60" fill="#666"/>

  <rect x="220" y="390" width="60" height="60" fill="#666"/>
  <rect x="320" y="390" width="40" height="40" fill="#666"/>
  <rect x="420" y="390" width="80" height="30" fill="#666"/>
  <rect x="520" y="390" width="60" height="60" fill="#666"/>

  <!-- Trees (green circles) -->
  <circle cx="250" cy="80" r="15" fill="#63ab4a"/>
  <circle cx="280" cy="80" r="10" fill="#94c937"/>
  <circle cx="310" cy="80" r="12" fill="#63ab4a"/>
  <circle cx="330" cy="80" r="8" fill="#d8df8b"/>
  <circle cx="360" cy="80" r="14" fill="#63ab4a"/>
  <circle cx="390" cy="80" r="10" fill="#94c937"/>
  <circle cx="420" cy="80" r="12" fill="#63ab4a"/>
  <circle cx="450" cy="80" r="8" fill="#d8df8b"/>
  <circle cx="480" cy="80" r="14" fill="#63ab4a"/>
  <circle cx="510" cy="80" r="10" fill="#94c937"/>
  <circle cx="540" cy="80" r="12" fill="#63ab4a"/>

  <circle cx="250" cy="220" r="15" fill="#63ab4a"/>
  <circle cx="280" cy="220" r="10" fill="#94c937"/>
  <circle cx="370" cy="220" r="12" fill="#63ab4a"/>
  <circle cx="400" cy="220" r="8" fill="#d8df8b"/>
  <circle cx="470" cy="220" r="14" fill="#63ab4a"/>
  <circle cx="500" cy="220" r="10" fill="#94c937"/>
  <circle cx="570" cy="220" r="12" fill="#63ab4a"/>

  <circle cx="250" cy="340" r="15" fill="#63ab4a"/>
  <circle cx="280" cy="340" r="10" fill="#94c937"/>
  <circle cx="370" cy="340" r="12" fill="#63ab4a"/>
  <circle cx="400" cy="340" r="8" fill="#d8df8b"/>
  <circle cx="470" cy="340" r="14" fill="#63ab4a"/>
  <circle cx="500" cy="340" r="10" fill="#94c937"/>
  <circle cx="570" cy="340" r="12" fill="#63ab4a"/>

  <!-- Water (blue area) -->
  <path d="M650 250C650 250 700 270 750 250C800 230 800 300 800 300V500H650V250Z" fill="#3d4db7" opacity="0.5"/>

  <!-- Markers for recommended planting spots -->
  <circle cx="300" cy="200" r="5" fill="#fff" stroke="#fff" stroke-width="2"/>
  <path d="M300 200L315 185M300 200L315 215M300 200L285 185M300 200L285 215" stroke="#fff" stroke-width="2"/>

  <circle cx="500" cy="300" r="5" fill="#fff" stroke="#fff" stroke-width="2"/>
  <path d="M500 300L515 285M500 300L515 315M500 300L485 285M500 300L485 315" stroke="#fff" stroke-width="2"/>

  <circle cx="150" cy="430" r="5" fill="#fff" stroke="#fff" stroke-width="2"/>
  <path d="M150 430L165 415M150 430L165 445M150 430L135 415M150 430L135 445" stroke="#fff" stroke-width="2"/>

  <circle cx="650" cy="150" r="5" fill="#fff" stroke="#fff" stroke-width="2"/>
  <path d="M650 150L665 135M650 150L665 165M650 150L635 135M650 150L635 165" stroke="#fff" stroke-width="2"/>

  <!-- North Arrow -->
  <path d="M740 50L750 70L760 50L750 40L740 50Z" fill="#333"/>
  <text x="750" y="85" font-family="Arial" font-size="14" text-anchor="middle" fill="#333">N</text>

  <!-- Scale -->
  <path d="M700 450H780" stroke="#333" stroke-width="2"/>
  <path d="M700 445V455" stroke="#333" stroke-width="2"/>
  <path d="M740 445V455" stroke="#333" stroke-width="2"/>
  <path d="M780 445V455" stroke="#333" stroke-width="2"/>
  <text x="720" y="470" font-family="Arial" font-size="10" text-anchor="middle" fill="#333">0</text>
  <text x="740" y="470" font-family="Arial" font-size="10" text-anchor="middle" fill="#333">500m</text>
  <text x="780" y="470" font-family="Arial" font-size="10" text-anchor="middle" fill="#333">1km</text>
</svg>
