<svg width="50" height="50" viewBox="0 0 50 50" fill="none" xmlns="http://www.w3.org/2000/svg">
  <path d="M25 5C14.5066 5 6 13.5066 6 24C6 34.4934 14.5066 43 25 43C35.4934 43 44 34.4934 44 24C44 13.5066 35.4934 5 25 5Z" fill="#ef4136" opacity="0.2"/>
  <path d="M25 10C17.268 10 11 16.268 11 24C11 31.732 17.268 38 25 38C32.732 38 39 31.732 39 24C39 16.268 32.732 10 25 10ZM25 36C18.373 36 13 30.627 13 24C13 17.373 18.373 12 25 12C31.627 12 37 17.373 37 24C37 30.627 31.627 36 25 36Z" fill="#ef4136"/>
  <path d="M25 15C20.0294 15 16 19.0294 16 24C16 28.9706 20.0294 33 25 33C29.9706 33 34 28.9706 34 24C34 19.0294 29.9706 15 25 15ZM25 31C21.134 31 18 27.866 18 24C18 20.134 21.134 17 25 17C28.866 17 32 20.134 32 24C32 27.866 28.866 31 25 31Z" fill="#fbb040"/>
  <path d="M25 20C22.7909 20 21 21.7909 21 24C21 26.2091 22.7909 28 25 28C27.2091 28 29 26.2091 29 24C29 21.7909 27.2091 20 25 20ZM25 26C23.8954 26 23 25.1046 23 24C23 22.8954 23.8954 22 25 22C26.1046 22 27 22.8954 27 24C27 25.1046 26.1046 26 25 26Z" fill="#ef4136"/>
  <path d="M41 14L43 16L41 18L39 16L41 14Z" fill="#ef4136"/>
  <path d="M35 8L37 10L35 12L33 10L35 8Z" fill="#ef4136"/>
  <path d="M41 26L43 28L41 30L39 28L41 26Z" fill="#ef4136"/>
  <path d="M9 14L11 16L9 18L7 16L9 14Z" fill="#ef4136"/>
  <path d="M15 8L17 10L15 12L13 10L15 8Z" fill="#ef4136"/>
  <path d="M9 26L11 28L9 30L7 28L9 26Z" fill="#ef4136"/>
</svg>
