<svg width="50" height="50" viewBox="0 0 50 50" fill="none" xmlns="http://www.w3.org/2000/svg">
  <path d="M25 5C14.5066 5 6 13.5066 6 24C6 34.4934 14.5066 43 25 43C35.4934 43 44 34.4934 44 24C44 13.5066 35.4934 5 25 5Z" fill="#3d4db7" opacity="0.1"/>
  <path d="M25 43C14.5066 43 6 34.4934 6 24H44C44 34.4934 35.4934 43 25 43Z" fill="#3d4db7" opacity="0.2"/>
  <path d="M25 5V43C35.4934 43 44 34.4934 44 24C44 13.5066 35.4934 5 25 5Z" fill="#3d4db7" opacity="0.3"/>
  <path d="M15 16C15 14.8954 15.8954 14 17 14C18.1046 14 19 14.8954 19 16V30C19 31.1046 18.1046 32 17 32C15.8954 32 15 31.1046 15 30V16Z" fill="#ef4136"/>
  <path d="M23 20C23 18.8954 23.8954 18 25 18C26.1046 18 27 18.8954 27 20V34C27 35.1046 26.1046 36 25 36C23.8954 36 23 35.1046 23 34V20Z" fill="#fbb040"/>
  <path d="M31 12C31 10.8954 31.8954 10 33 10C34.1046 10 35 10.8954 35 12V26C35 27.1046 34.1046 28 33 28C31.8954 28 31 27.1046 31 26V12Z" fill="#94c937"/>
  <path d="M36 22L40 26L36 30" stroke="#334232" stroke-width="2" stroke-linecap="round" stroke-linejoin="round"/>
  <path d="M14 22L10 26L14 30" stroke="#334232" stroke-width="2" stroke-linecap="round" stroke-linejoin="round"/>
  <rect x="15" y="23" width="4" height="2" fill="white"/>
  <rect x="23" y="27" width="4" height="2" fill="white"/>
  <rect x="31" y="19" width="4" height="2" fill="white"/>
</svg>
