<svg width="50" height="50" viewBox="0 0 50 50" fill="none" xmlns="http://www.w3.org/2000/svg">
  <path d="M25 10C19.4772 10 15 14.4772 15 20C15 22.5361 15.9545 24.8487 17.5 26.6042C15.4175 28.2135 14 30.6198 14 33.3333C14 38.1107 18.0294 42 23 42C24.6492 42 26.1935 41.5743 27.5 40.8264C28.8065 41.5743 30.3508 42 32 42C36.9706 42 41 38.1107 41 33.3333C41 30.6198 39.5825 28.2135 37.5 26.6042C39.0455 24.8487 40 22.5361 40 20C40 14.4772 35.5228 10 30 10C28.3508 10 26.8065 10.4257 25.5 11.1736C24.1935 10.4257 22.6492 10 21 10H25Z" fill="#94c937"/>
  <path d="M25 42C25 42 40 32 40 22C40 17.0294 35.9706 13 31 13C28.0474 13 25.4366 14.6425 24 17.0782C22.5634 14.6425 19.9526 13 17 13C12.0294 13 8 17.0294 8 22C8 32 25 42 25 42Z" fill="#63ab4a"/>
  <path d="M25 42C25 42 40 32 40 22C40 17.0294 35.9706 13 31 13C28.0474 13 25.4366 14.6425 24 17.0782V42H25Z" fill="#d8df8b"/>
  <rect x="24" y="32" width="2" height="12" fill="#954d35"/>
</svg>
